<svg width="416" height="556" viewBox="0 0 416 556" fill="none" xmlns="http://www.w3.org/2000/svg">
<mask id="mask0_119_48" style="mask-type:alpha" maskUnits="userSpaceOnUse" x="0" y="0" width="416" height="556">
<rect width="416" height="556" fill="#C4C4C4"/>
</mask>
<g mask="url(#mask0_119_48)">
<path fill-rule="evenodd" clip-rule="evenodd" d="M224 345H62C52.0589 345 44 353.059 44 363C44 372.941 52.0589 381 62 381V504.429C93.7143 513 157.143 550.2 157.143 630.429C157.143 669.681 134.368 682.219 111.104 695.027C86.8186 708.397 62 722.061 62 766.714H224H386C386 722.061 361.181 708.397 336.896 695.027C313.632 682.219 290.857 669.681 290.857 630.429C290.857 550.2 354.286 513 386 504.429V381C395.941 381 404 372.941 404 363C404 353.059 395.941 345 386 345H224Z" fill="#1A1A1A"/>
<path d="M306.499 20.1099C305.975 9.80482 308.474 -0.47292 321.028 11.7749C333.584 24.0228 338.411 29.018 342.919 31.9185C347.425 34.8189 349.357 34.109 355.152 33.1422C360.944 32.1754 361.912 31.9185 367.223 32.7241C372.534 33.5298 371.676 34.1744 376.128 29.8237C380.582 25.473 390.078 13.7086 399.251 5.00571C408.425 -3.69564 416 -1.2786 416 14.0308C416 29.3403 409.438 42.8924 408.108 56.4142C407.303 64.6002 404.084 59.8148 402.312 71.2402C400.748 81.3279 394.426 93.1562 392.656 105.887C390.886 118.619 387.105 132.317 385.198 136.186C383.289 140.053 383.804 139.734 383.804 147.79C383.804 155.847 383.979 155.656 384.448 162.615C385.415 176.958 385.415 184.371 371.734 205.641C358.052 226.914 357.086 221.434 349.361 234.328C341.636 247.222 338.094 253.827 335.52 257.374C332.945 260.919 334.394 257.694 334.394 262.047C334.394 266.397 333.747 312.97 335.036 318.289C336.325 323.607 337.289 330.697 339.544 331.502C341.798 332.308 351.453 337.788 356.444 341.816C361.433 345.843 360.389 357.14 346.466 358.091C339.706 358.555 317.738 357.716 312.504 346.652C306.71 334.403 300.989 317.961 299.629 307.491C296.087 280.255 290.935 269.296 290.935 269.296C290.935 269.296 292.581 281.907 289.165 303.139C285.3 327.15 270.011 341.331 270.011 341.331C270.011 341.331 276.767 344.074 276.447 350.519C276.125 356.965 274.514 362.284 242.482 364.702C210.454 367.119 211.509 363.897 208.003 364.056C204.497 364.217 197.414 365.347 186.791 366.634C176.167 367.925 168.925 366.153 165.706 366.634C162.487 367.118 144.138 377.269 80.2384 372.919C16.3401 368.568 0 338.717 0 311.917C0 268.685 33.0324 247.523 51.5255 246.812C64.8897 246.296 81.5973 259.935 53.8379 260.45C36.3636 260.774 20.4259 280.007 20.4259 310.631C20.4259 341.254 49.9829 349.744 80.5679 349.744C108.052 349.744 118.687 351.664 126.831 347.943C141.481 341.252 144.052 338.164 144.823 329.67C145.594 321.179 150.221 306.769 145.594 264.565C140.968 222.363 180.805 162.405 223.472 144.907C266.138 127.408 257.913 133.069 267.679 129.725C277.446 126.379 292.61 119.175 296.723 114.028C300.834 108.881 312.657 98.5877 315.999 95.2434C322.451 88.7827 321.045 84.426 320.63 69.2062C320.574 67.1328 318.055 65.9075 315.999 58.1867C313.943 50.4658 313.521 45.8628 311.209 37.3712C308.916 28.9329 306.654 22.828 306.517 20.1616L306.499 20.1099Z" fill="#191919"/>
</g>
</svg>
