
<svg width="2560" height="720" viewBox="0 0 2560 720" fill="none" xmlns="http://www.w3.org/2000/svg">
<g clip-path="url(#clip0_111_2)">
<path d="M208.075 333.221L203 307.337H248.423L244.871 333.221H208.075Z" fill="white"/>
<path d="M247.408 293.634L242.333 267.75H286.488L283.442 293.634H247.408Z" fill="white"/>
<path d="M249.439 258.869H214.166L210.105 234H255.529L249.439 258.869Z" fill="white"/>
<path d="M219.052 679.221L214 653.337H259.215L255.679 679.221H219.052Z" fill="white"/>
<path d="M258.205 639.634L253.153 613.75H297.106L294.075 639.634H258.205Z" fill="white"/>
<path d="M260.226 604.869H225.115L221.073 580H266.289L260.226 604.869Z" fill="white"/>
<path d="M838.052 125.221L833 99.3372H878.215L874.679 125.221H838.052Z" fill="white"/>
<path d="M877.205 85.6341L872.153 59.7504H916.106L913.075 85.6341H877.205Z" fill="white"/>
<path d="M879.226 50.8687H844.115L840.073 26H885.289L879.226 50.8687Z" fill="white"/>
<path d="M390.069 88.4514H336.018L330.942 58H390.069V88.4514Z" fill="white"/>
<path d="M362.662 94.7955H318L322.06 121.948H362.662V94.7955Z" fill="white"/>
<path d="M379.157 123.217L376.365 92.0042H409.354L407.324 123.217H379.157Z" fill="white"/>
<path d="M673.069 298.451H619.018L613.942 268H673.069V298.451Z" fill="white"/>
<path d="M645.662 304.795H601L605.06 331.948H645.662V304.795Z" fill="white"/>
<path d="M662.157 333.217L659.365 302.004H692.354L690.324 333.217H662.157Z" fill="white"/>
<path d="M72.0689 302.451H18.0176L12.9424 272H72.0689V302.451Z" fill="white"/>
<path d="M44.6621 308.795H0L4.06019 335.948H44.6621V308.795Z" fill="white"/>
<path d="M61.1566 337.217L58.3652 306.004H91.3543L89.3242 337.217H61.1566Z" fill="white"/>
<path d="M987.069 670.451H933.018L927.942 640H987.069V670.451Z" fill="white"/>
<path d="M959.662 676.795H915L919.06 703.948H959.662V676.795Z" fill="white"/>
<path d="M976.157 705.217L973.365 674.004H1006.35L1004.32 705.217H976.157Z" fill="white"/>
<path d="M1192.07 489.451H1138.02L1132.94 459H1192.07V489.451Z" fill="white"/>
<path d="M1164.66 495.795H1120L1124.06 522.948H1164.66V495.795Z" fill="white"/>
<path d="M1181.16 524.217L1178.37 493.004H1211.35L1209.32 524.217H1181.16Z" fill="white"/>
<path d="M34 635.395V607.735H66.9891L62.1676 635.395H34Z" fill="white"/>
<path d="M55.0626 604.944C53.9629 595.301 51.7637 575.812 51.7637 575H78.6624L77.6474 604.944H55.0626Z" fill="white"/>
<path d="M595 163.395V135.735H627.989L623.168 163.395H595Z" fill="white"/>
<path d="M616.063 132.944C614.963 123.301 612.764 103.812 612.764 103H639.662L638.647 132.944H616.063Z" fill="white"/>
<path d="M550 682.395V654.735H582.989L578.168 682.395H550Z" fill="white"/>
<path d="M571.063 651.944C569.963 642.301 567.764 622.812 567.764 622H594.662L593.647 651.944H571.063Z" fill="white"/>
<path d="M1003.53 365.049H971.811V391.948H1007.59L1003.53 365.049Z" fill="white"/>
<path d="M934 359.466L938.314 328H983.991L988.305 359.466H934Z" fill="white"/>
<path d="M1022.82 356.421H996.172L991.858 333.329H1026.62L1022.82 356.421Z" fill="white"/>
<path d="M19 53.7695V18.4966H89.5458L96.1436 53.7695H19Z" fill="white"/>
<path d="M103.503 91.8338H69.4989L64.1699 64.1737H110.101L103.503 91.8338Z" fill="white"/>
<path d="M103.502 16.7203L98.6807 -15H160.091L155.27 16.7203H103.502Z" fill="white"/>
<path d="M692 541.769V506.497H762.546L769.144 541.769H692Z" fill="white"/>
<path d="M776.503 579.834H742.499L737.17 552.174H783.101L776.503 579.834Z" fill="white"/>
<path d="M776.502 504.72L771.681 473H833.091L828.27 504.72H776.502Z" fill="white"/>
<path d="M383.821 443.217L379 413.019H460.204L452.591 443.217H383.821Z" fill="white"/>
<path d="M482.281 483.819H429.245L422.394 456.412H482.281V483.819Z" fill="white"/>
<path d="M402.347 405.406L395.495 378H465.787L459.443 405.406H402.347Z" fill="white"/>
<path d="M1067.82 163.217L1063 133.019H1144.2L1136.59 163.217H1067.82Z" fill="white"/>
<path d="M1166.28 203.819H1113.25L1106.39 176.412H1166.28V203.819Z" fill="white"/>
<path d="M1086.35 125.406L1079.5 98H1149.79L1143.44 125.406H1086.35Z" fill="white"/>
<path d="M1557.05 640.221L1552 614.337H1597.22L1593.68 640.221H1557.05Z" fill="white"/>
<path d="M1596.21 600.634L1591.15 574.75H1635.11L1632.07 600.634H1596.21Z" fill="white"/>
<path d="M1598.23 565.869H1563.11L1559.07 541H1604.29L1598.23 565.869Z" fill="white"/>
<path d="M2255.05 325.221L2250 299.337H2295.22L2291.68 325.221H2255.05Z" fill="white"/>
<path d="M2294.21 285.634L2289.15 259.75H2333.11L2330.07 285.634H2294.21Z" fill="white"/>
<path d="M2296.23 250.869H2261.11L2257.07 226H2302.29L2296.23 250.869Z" fill="white"/>
<path d="M2125.05 575.221L2120 549.337H2165.22L2161.68 575.221H2125.05Z" fill="white"/>
<path d="M2164.21 535.634L2159.15 509.75H2203.11L2200.07 535.634H2164.21Z" fill="white"/>
<path d="M2166.23 500.869H2131.11L2127.07 476H2172.29L2166.23 500.869Z" fill="white"/>
<path d="M2039.07 346.451H1985.02L1979.94 316H2039.07V346.451Z" fill="white"/>
<path d="M2011.66 352.795H1967L1971.06 379.948H2011.66V352.795Z" fill="white"/>
<path d="M2028.16 381.217L2025.37 350.004H2058.35L2056.32 381.217H2028.16Z" fill="white"/>
<path d="M2063.07 134.451H2009.02L2003.94 104H2063.07V134.451Z" fill="white"/>
<path d="M2035.66 140.795H1991L1995.06 167.948H2035.66V140.795Z" fill="white"/>
<path d="M2052.16 169.217L2049.37 138.004H2082.35L2080.32 169.217H2052.16Z" fill="white"/>
<path d="M1314 635.395V607.735H1346.99L1342.17 635.395H1314Z" fill="white"/>
<path d="M1335.06 604.944C1333.96 595.301 1331.76 575.812 1331.76 575H1358.66L1357.65 604.944H1335.06Z" fill="white"/>
<path d="M1659 214.395V186.735H1691.99L1687.17 214.395H1659Z" fill="white"/>
<path d="M1680.06 183.944C1678.96 174.301 1676.76 154.812 1676.76 154H1703.66L1702.65 183.944H1680.06Z" fill="white"/>
<path d="M2415 472.395V444.735H2447.99L2443.17 472.395H2415Z" fill="white"/>
<path d="M2436.06 441.944C2434.96 432.301 2432.76 412.812 2432.76 412H2459.66L2458.65 441.944H2436.06Z" fill="white"/>
<path d="M1830 682.395V654.735H1862.99L1858.17 682.395H1830Z" fill="white"/>
<path d="M1851.06 651.944C1849.96 642.301 1847.76 622.812 1847.76 622H1874.66L1873.65 651.944H1851.06Z" fill="white"/>
<path d="M1750.53 385.049H1718.81V411.948H1754.59L1750.53 385.049Z" fill="white"/>
<path d="M1681 379.466L1685.31 348H1730.99L1735.31 379.466H1681Z" fill="white"/>
<path d="M1769.82 376.421H1743.17L1738.86 353.329H1773.62L1769.82 376.421Z" fill="white"/>
<path d="M2294 652.769V617.497H2364.55L2371.14 652.769H2294Z" fill="white"/>
<path d="M2378.5 690.834H2344.5L2339.17 663.174H2385.1L2378.5 690.834Z" fill="white"/>
<path d="M2378.5 615.72L2373.68 584H2435.09L2430.27 615.72H2378.5Z" fill="white"/>
<path d="M1349 110.769V75.4966H1419.55L1426.14 110.769H1349Z" fill="white"/>
<path d="M1433.5 148.834H1399.5L1394.17 121.174H1440.1L1433.5 148.834Z" fill="white"/>
<path d="M1433.5 73.7203L1428.68 42H1490.09L1485.27 73.7203H1433.5Z" fill="white"/>
<path d="M1324.82 363.217L1320 333.019H1401.2L1393.59 363.217H1324.82Z" fill="white"/>
<path d="M1423.28 403.819H1370.25L1363.39 376.412H1423.28V403.819Z" fill="white"/>
<path d="M1343.35 325.406L1336.5 298H1406.79L1400.44 325.406H1343.35Z" fill="white"/>
<path d="M2398.82 127.217L2394 97.0192H2475.2L2467.59 127.217H2398.82Z" fill="white"/>
<path d="M2497.28 167.819H2444.25L2437.39 140.412H2497.28V167.819Z" fill="white"/>
<path d="M2417.35 89.4063L2410.5 62H2480.79L2474.44 89.4063H2417.35Z" fill="white"/>
<path d="M2135.05 62.2209L2130 36.3372H2175.22L2171.68 62.2209H2135.05Z" fill="white"/>
<path d="M2174.21 22.6341L2169.15 -3.24963H2213.11L2210.07 22.6341H2174.21Z" fill="white"/>
<path d="M1754.66 3.79547H1710L1714.06 30.948H1754.66V3.79547Z" fill="white"/>
<path d="M1771.16 32.2168L1768.37 1.00412H1801.35L1799.32 32.2168H1771.16Z" fill="white"/>
</g>
<defs>
<clipPath id="clip0_111_2">
<rect width="2560" height="720" fill="white"/>
</clipPath>
</defs>
</svg>
